<mxfile host="Electron" modified="2023-04-12T11:11:05.257Z" agent="Mozilla/5.0 (Windows NT 10.0; Win64; x64) AppleWebKit/537.36 (KHTML, like Gecko) draw.io/21.1.2 Chrome/106.0.5249.199 Electron/21.4.3 Safari/537.36" etag="5NHgWYP6EdhWDpU4Was1" version="21.1.2" type="device">
  <diagram name="Page-1" id="EgT46zGkKZcZ6yxDfQWY">
    <mxGraphModel dx="2938" dy="1178" grid="0" gridSize="10" guides="1" tooltips="1" connect="1" arrows="1" fold="1" page="0" pageScale="1" pageWidth="827" pageHeight="1169" math="0" shadow="0">
      <root>
        <mxCell id="0" />
        <mxCell id="1" parent="0" />
        <mxCell id="atP8IudcIXunhFcaOxjJ-2" value="" style="edgeStyle=orthogonalEdgeStyle;rounded=0;orthogonalLoop=1;jettySize=auto;html=1;" parent="1" source="MplP26jwabLAFGeCvP-g-1" target="MplP26jwabLAFGeCvP-g-4" edge="1">
          <mxGeometry relative="1" as="geometry" />
        </mxCell>
        <mxCell id="MplP26jwabLAFGeCvP-g-1" value="&lt;font style=&quot;font-size: 16px;&quot;&gt;Programming Language&lt;br&gt;C#&lt;/font&gt;" style="rounded=1;whiteSpace=wrap;html=1;fillColor=#fff2cc;strokeColor=#d6b656;" parent="1" vertex="1">
          <mxGeometry x="340" y="330" width="390" height="200" as="geometry" />
        </mxCell>
        <mxCell id="MplP26jwabLAFGeCvP-g-2" value="Windows Presentation Foundation&lt;br&gt;(WPF)&lt;br&gt;" style="rounded=1;whiteSpace=wrap;html=1;" parent="1" vertex="1">
          <mxGeometry x="340" y="330" width="150" height="50" as="geometry" />
        </mxCell>
        <mxCell id="MplP26jwabLAFGeCvP-g-3" value=".NET" style="rounded=1;whiteSpace=wrap;html=1;" parent="1" vertex="1">
          <mxGeometry x="580" y="330" width="150" height="50" as="geometry" />
        </mxCell>
        <mxCell id="MplP26jwabLAFGeCvP-g-4" value="" style="sketch=0;outlineConnect=0;fontColor=#232F3E;gradientColor=none;fillColor=#2E27AD;strokeColor=none;dashed=0;verticalLabelPosition=bottom;verticalAlign=top;align=center;html=1;fontSize=12;fontStyle=0;aspect=fixed;pointerEvents=1;shape=mxgraph.aws4.rds_mariadb_instance;" parent="1" vertex="1">
          <mxGeometry x="160" y="391" width="78" height="78" as="geometry" />
        </mxCell>
        <mxCell id="atP8IudcIXunhFcaOxjJ-1" value="Desktop Application" style="rounded=1;whiteSpace=wrap;html=1;" parent="1" vertex="1">
          <mxGeometry x="580" y="480" width="150" height="50" as="geometry" />
        </mxCell>
      </root>
    </mxGraphModel>
  </diagram>
</mxfile>
